<?xml version="1.0" encoding="UTF-8"?>
<!-- Generator: visioncortex VTracer 0.6.12 -->
<svg version="1.1" xmlns="http://www.w3.org/2000/svg" width="1024" height="488">
<path d="M0 0 C1.041 -0.007 2.082 -0.013 3.154 -0.02 C6.611 -0.04 10.068 -0.051 13.525 -0.061 C14.705 -0.065 15.884 -0.069 17.1 -0.074 C23.346 -0.095 29.593 -0.109 35.84 -0.118 C42.289 -0.129 48.739 -0.164 55.188 -0.203 C60.148 -0.23 65.109 -0.238 70.069 -0.241 C72.446 -0.246 74.823 -0.258 77.2 -0.276 C80.532 -0.301 83.863 -0.3 87.195 -0.293 C88.173 -0.306 89.151 -0.319 90.159 -0.332 C96.565 -0.283 100.424 1.008 105.986 4.177 C109.712 5.083 109.712 5.083 113.611 5.677 C115.099 5.917 116.588 6.158 118.076 6.4 C118.47 6.462 118.47 6.462 120.466 6.775 C133.508 8.855 146.392 11.122 158.986 15.177 C159.496 15.336 159.496 15.336 162.08 16.142 C172.094 19.355 181.618 23.417 190.986 28.177 C192.484 28.806 193.984 29.43 195.486 30.052 C200.21 32.126 203.974 34.974 207.986 38.177 C209.275 39.139 210.566 40.097 211.861 41.052 C220.348 47.43 228.482 53.702 234.986 62.177 C235.893 63.291 236.801 64.405 237.736 65.552 C254.361 88.196 257.701 115.629 253.173 142.802 C253.008 143.796 252.843 144.791 252.673 145.815 C251.407 152.889 249.775 159.674 246.486 166.115 C245.151 168.84 244.391 171.204 243.611 174.115 C242.242 178.915 239.979 182.162 236.986 186.177 C236.303 187.597 235.658 189.036 235.048 190.49 C231.653 198.488 226.977 205.404 221.568 212.169 C219.544 214.737 217.787 217.449 215.986 220.177 C210.85 227.749 205.088 234.513 198.826 241.157 C194.663 245.584 190.63 250.098 186.861 254.865 C183.24 259.33 179.038 263.015 174.669 266.716 C171.646 269.34 168.873 272.201 166.181 275.161 C165.519 275.868 164.856 276.574 164.173 277.302 C163.569 277.965 162.964 278.627 162.341 279.31 C154.633 285.42 145.769 284.585 136.4 284.505 C134.892 284.502 133.383 284.5 131.875 284.499 C128.73 284.495 125.585 284.481 122.439 284.458 C118.404 284.43 114.369 284.419 110.334 284.415 C107.227 284.41 104.12 284.401 101.012 284.389 C98.8 284.38 96.587 284.374 94.375 284.367 C93.707 284.362 93.707 284.362 90.328 284.338 C89.149 284.331 87.969 284.324 86.754 284.317 C83.986 284.177 83.986 284.177 81.986 283.177 C81.59 278.663 81.665 276.385 85.087 273.255 C86.976 271.938 88.884 270.648 90.806 269.38 C96.349 265.54 101.072 260.775 105.986 256.177 C109.668 252.879 113.39 249.658 117.236 246.552 C119.88 244.268 121.82 241.902 123.986 239.177 C124.749 238.579 125.512 237.981 126.298 237.365 C129.29 234.929 131.604 232.242 134.099 229.314 C135.979 227.185 137.947 225.215 139.986 223.24 C143.392 219.879 146.327 216.336 149.208 212.521 C151.065 210.072 152.987 207.688 154.923 205.302 C158.504 200.844 161.888 196.265 165.224 191.622 C166.328 190.09 167.449 188.569 168.595 187.068 C170.66 184.261 172.264 181.204 173.986 178.177 C174.666 177.166 175.347 176.156 176.048 175.115 C177.986 172.177 177.986 172.177 179.423 169.302 C180.986 166.177 180.986 166.177 183.423 162.49 C185.977 158.495 187.507 154.375 188.994 149.888 C189.986 147.177 189.986 147.177 191.434 144.399 C203.498 119.354 204.352 87.174 189.111 63.365 C187.782 61.6 186.407 59.868 184.986 58.177 C184.251 57.29 183.516 56.403 182.759 55.49 C176.303 48.034 169.711 41.851 160.986 37.177 C159.67 36.329 158.357 35.474 157.048 34.615 C153.218 32.187 149.253 30.716 144.986 29.177 C144.267 28.705 143.547 28.233 142.806 27.747 C139.067 25.666 135.169 24.702 131.048 23.677 C130.196 23.461 129.345 23.245 128.467 23.023 C125.975 22.398 123.481 21.787 120.986 21.177 C120.412 21.031 120.412 21.031 117.505 20.294 C98.384 15.781 78.558 14.711 58.986 14.177 C58.986 14.837 58.986 15.497 58.986 16.177 C61.197 17.179 61.197 17.179 63.986 18.177 C64.74 18.501 65.494 18.825 66.271 19.159 C73.352 22.154 80.435 23.744 87.951 25.243 C93.896 26.499 98.656 28.252 103.986 31.177 C105.244 31.755 106.502 32.332 107.798 32.927 C115.26 36.665 121.936 41.525 126.986 48.177 C127.646 48.816 128.306 49.456 128.986 50.115 C135.587 56.922 139.444 65.424 141.736 74.49 C141.951 75.334 142.167 76.178 142.388 77.049 C143.81 82.879 144.735 88.175 143.986 94.177 C143.879 95.106 143.772 96.036 143.662 96.993 C143.196 100.41 142.607 103.786 141.986 107.177 C141.857 107.912 141.728 108.647 141.595 109.404 C139.687 120.128 137.113 129.47 131.986 139.177 C131.151 140.885 130.318 142.593 129.486 144.302 C125.108 152.931 120.477 161.205 114.986 169.177 C114.285 170.25 113.583 171.322 112.861 172.427 C111.016 175.133 109.053 177.638 106.986 180.177 C105.922 181.551 104.859 182.926 103.798 184.302 C95.399 195.102 86.665 205.498 76.986 215.177 C75.812 216.504 74.646 217.838 73.486 219.177 C69.199 224.11 64.649 228.497 59.669 232.716 C56.666 235.322 53.934 238.19 51.181 241.056 C47.416 244.916 43.641 248.266 39.263 251.404 C35.209 254.56 31.545 258.157 27.818 261.689 C25.294 263.906 22.879 265.506 19.986 267.177 C19.161 268.002 18.336 268.827 17.486 269.677 C15.093 272.07 12.877 273.472 9.986 275.177 C9.388 275.816 8.79 276.456 8.173 277.115 C2.232 282.717 -3.768 283.769 -11.587 283.723 C-12.52 283.733 -13.453 283.744 -14.415 283.754 C-17.525 283.784 -20.634 283.785 -23.744 283.786 C-25.98 283.802 -28.216 283.819 -30.452 283.837 C-36.512 283.882 -42.571 283.902 -48.63 283.916 C-54.968 283.934 -61.306 283.972 -67.643 284.006 C-78.278 284.06 -88.913 284.098 -99.548 284.126 C-111.86 284.159 -124.171 284.22 -136.483 284.297 C-147.047 284.361 -157.611 284.411 -168.175 284.447 C-174.488 284.469 -180.801 284.496 -187.113 284.537 C-193.04 284.575 -198.967 284.593 -204.894 284.596 C-207.076 284.601 -209.257 284.612 -211.438 284.63 C-214.403 284.654 -217.366 284.654 -220.33 284.647 C-221.205 284.66 -222.08 284.673 -222.981 284.686 C-225.368 284.665 -225.368 284.665 -229.014 284.177 C-230.014 280.177 -230.014 280.177 -228.303 278.396 C-221.161 273.788 -214.466 271.856 -206.174 270.142 C-201.373 269.028 -197.13 267.339 -192.647 265.329 C-190.248 264.279 -187.889 263.448 -185.389 262.677 C-181.177 261.339 -177.412 259.404 -173.499 257.368 C-171.111 256.224 -168.792 255.391 -166.264 254.615 C-162.014 253.177 -162.014 253.177 -159.139 251.24 C-156.21 249.306 -153.806 248.308 -150.514 247.177 C-146.149 245.673 -142.839 243.781 -139.014 241.177 C-137.339 240.481 -135.65 239.816 -133.952 239.177 C-129.984 237.666 -127.305 235.877 -124.014 233.177 C-122.634 232.518 -121.236 231.896 -119.827 231.302 C-113.499 228.623 -107.748 225.038 -102.077 221.177 C-99.259 219.337 -96.419 217.76 -93.452 216.177 C-89.625 214.119 -86.35 211.972 -83.014 209.177 C-81.107 207.981 -79.198 206.786 -77.276 205.615 C-73.788 203.397 -70.46 200.96 -67.116 198.532 C-65.014 197.177 -65.014 197.177 -63.014 197.177 C-62.684 196.187 -62.354 195.197 -62.014 194.177 C-60.104 192.967 -58.189 191.76 -56.217 190.654 C-53.455 188.803 -51.345 186.544 -49.014 184.177 C-47.261 182.718 -45.49 181.28 -43.702 179.865 C-39.508 176.475 -35.661 172.946 -31.913 169.075 C-30.002 167.165 -28.013 165.422 -25.952 163.677 C-13.146 152.622 -1.005 136.504 5.986 121.177 C6.614 120.126 7.241 119.076 7.888 117.993 C19.03 97.722 19.596 77.326 7.986 57.177 C5.396 54.384 5.396 54.384 2.986 52.177 C2.243 51.373 1.501 50.568 0.736 49.74 C-2.92 46.333 -6.73 43.74 -11.014 41.177 C-12.056 40.545 -13.097 39.914 -14.17 39.263 C-37.39 26.413 -62.284 25.28 -88.215 24.707 C-88.75 24.694 -88.75 24.694 -91.458 24.631 C-93.485 24.587 -95.512 24.553 -97.54 24.53 C-102.11 24.442 -105.875 24.364 -110.014 22.177 C-106.851 15.85 -101.656 16.376 -95.014 15.177 C-94.587 15.1 -94.587 15.1 -92.422 14.708 C-75.582 11.7 -58.66 9.354 -41.659 7.466 C-27.504 5.861 -13.89 0.038 0 0 Z " fill="#7DD954" transform="translate(581.01416015625,-0.177001953125)"/>
<path d="M0 0 C-1 4 -1 4 -4 7 C-4.66 7 -5.32 7 -6 7 C-6.137 7.373 -6.137 7.373 -6.832 9.262 C-8.248 12.582 -9.789 13.704 -12.688 15.812 C-17.465 19.481 -21.216 23.339 -25 28 C-25.744 28.88 -26.488 29.761 -27.254 30.668 C-31.645 35.913 -35.454 41.159 -39 47 C-39.99 47.99 -40.98 48.98 -42 50 C-43.027 52.453 -43.027 52.453 -43.938 55.25 C-45.091 58.632 -46.134 61.211 -48.062 64.25 C-51.128 70.184 -51.976 76.443 -53 83 C-53.169 84.043 -53.338 85.086 -53.512 86.16 C-54.342 93.082 -53.735 99.577 -52.75 106.438 C-52.629 107.29 -52.507 108.143 -52.382 109.022 C-49.679 125.83 -37.056 138.201 -22 145 C-20.864 145.639 -19.729 146.279 -18.559 146.938 C-13.042 149.697 -7.22 150.673 -1.188 151.75 C-0.003 151.966 1.182 152.182 2.402 152.405 C26.827 156.586 26.827 156.586 34 153 C40.322 152.195 40.322 152.195 43 155.375 C45.441 164.222 41.986 174.521 40.188 183.312 C37.802 195.233 35.859 207.14 34.382 219.206 C33.703 224.587 32.876 229.76 31.477 235.004 C29.795 241.375 29.16 247.701 28.562 254.25 C25.321 286.041 25.321 286.041 16.062 290.375 C12.817 291.037 11.189 290.683 8 290 C6.223 289.827 4.442 289.686 2.66 289.57 C2.136 289.535 2.136 289.535 -0.517 289.354 C-1.646 289.278 -2.775 289.203 -3.938 289.125 C-14.282 288.388 -24.613 287.547 -34.938 286.562 C-35.549 286.507 -35.549 286.507 -38.646 286.229 C-46.329 285.475 -53.579 284.119 -61 282 C-61.786 281.777 -62.572 281.554 -63.381 281.325 C-77.392 277.192 -90.733 271.516 -102 262 C-102.296 261.763 -102.296 261.763 -103.797 260.566 C-126.19 242.013 -139.172 217.459 -139.188 188.312 C-139.2 187.083 -139.212 185.854 -139.225 184.588 C-139.24 174.759 -138.069 166.287 -134.625 157.062 C-134.187 155.879 -133.748 154.696 -133.297 153.477 C-132.869 152.329 -132.441 151.182 -132 150 C-129.965 144.196 -129.965 144.196 -128.992 141.402 C-127.898 138.754 -126.474 136.454 -125 134 C-124.321 132.347 -123.674 130.68 -123.062 129 C-121.523 125.032 -119.752 122.268 -117 119 C-116.34 117.68 -115.68 116.36 -115 115 C-113.237 111.475 -111.481 109.007 -109 106 C-108.151 104.677 -107.319 103.342 -106.5 102 C-104.529 98.792 -102.407 95.903 -100 93 C-96.802 88.977 -93.646 84.978 -90.812 80.688 C-89.079 78.118 -87.221 76.144 -85 74 C-84.67 73.34 -84.34 72.68 -84 72 C-87.301 73.009 -88.81 73.763 -91 76.5 C-93.237 79.296 -94.756 79.72 -98 81 C-98.33 81.66 -98.33 81.66 -100 85 C-101.586 86.711 -101.586 86.711 -103.375 88.375 C-106.439 91.337 -108.686 94.41 -111 98 C-112.333 99.333 -113.667 100.667 -115 102 C-116.375 103.971 -117.702 105.977 -119 108 C-121.901 112.442 -124.809 116.793 -128.125 120.938 C-130.944 124.616 -132.485 128.376 -134.07 132.707 C-135 135 -135 135 -137 137.812 C-139.575 141.916 -140.666 146.081 -141.992 150.719 C-142.861 153.546 -143.888 156.074 -145.125 158.75 C-154.525 181.806 -150.237 214.232 -140 236 C-139.563 236.969 -139.126 237.939 -138.676 238.938 C-126.664 264.478 -101.946 283.712 -76.087 293.772 C-74.165 294.537 -72.254 295.332 -70.364 296.172 C-62.122 299.825 -53.757 302.107 -45 304.188 C-44.637 304.275 -44.637 304.275 -42.801 304.715 C-29.332 307.926 -16.328 309.678 -2.523 310.219 C-1.611 310.257 -0.698 310.295 0.243 310.334 C1.985 310.401 3.727 310.452 5.47 310.484 C10.083 310.629 13.437 310.925 17 314 C18.412 319.826 18.229 324 15.95 329.529 C15 332 15 332 14.341 334.602 C12.361 341.492 12.361 341.492 8.666 342.872 C5.659 343.138 2.824 343.069 -0.188 342.875 C-1.191 342.863 -2.195 342.852 -3.229 342.84 C-9.161 342.647 -13.603 341.594 -18.897 338.958 C-22.26 337.426 -25.675 336.976 -29.312 336.438 C-30.083 336.317 -30.854 336.196 -31.648 336.071 C-35.681 335.447 -39.717 334.907 -43.77 334.43 C-60.176 332.403 -76.109 327.805 -90.797 320.126 C-92.916 319.043 -95.053 318.098 -97.25 317.188 C-105.684 313.498 -113.927 308.904 -121 303 C-121.793 302.384 -122.586 301.768 -123.402 301.133 C-134.765 292.134 -145.172 282.258 -153 270 C-153.482 269.38 -153.964 268.76 -154.461 268.121 C-160.552 259.727 -163.819 250.242 -165.883 240.18 C-167 237 -167 237 -169.528 235.537 C-173.544 231.416 -172.714 226.761 -172.664 221.227 C-172.669 220.07 -172.674 218.914 -172.679 217.722 C-172.682 215.276 -172.673 212.83 -172.652 210.384 C-172.625 206.645 -172.652 202.91 -172.684 199.172 C-172.68 196.794 -172.674 194.417 -172.664 192.039 C-172.674 190.923 -172.684 189.807 -172.695 188.658 C-172.595 181.996 -171.887 178.88 -167 174 C-165.993 171.537 -165.993 171.537 -165.445 169.129 C-165.227 168.232 -165.008 167.335 -164.783 166.411 C-164.566 165.471 -164.349 164.531 -164.125 163.562 C-161.73 154.035 -158.609 145.712 -154 137 C-153.603 136.224 -153.206 135.448 -152.797 134.648 C-151.595 132.388 -150.316 130.196 -149 128 C-148.292 126.809 -147.585 125.618 -146.855 124.391 C-141.198 115.022 -134.978 106.448 -128 98 C-127.762 97.71 -127.762 97.71 -126.556 96.244 C-121.793 90.466 -117.002 84.805 -111.609 79.605 C-109.81 77.81 -108.158 75.926 -106.5 74 C-99.965 66.468 -92.77 60.242 -85 54 C-83.124 52.46 -81.249 50.918 -79.375 49.375 C-72.755 43.963 -66.143 38.708 -59 34 C-58.251 33.385 -57.502 32.77 -56.73 32.137 C-53.791 29.837 -50.758 27.927 -47.562 26 C-44.336 24.05 -41.139 22.093 -38.004 20 C-33.769 17.18 -29.392 14.607 -25.023 12 C-22 10 -22 10 -19.855 7.848 C-17.074 5.078 -13.645 4.331 -10 3 C-9.01 2.01 -8.02 1.02 -7 0 C-4 -1 -4 -1 0 0 Z M-80 66 C-80.33 66.66 -80.66 67.32 -81 68 C-80.01 67.67 -79.02 67.34 -78 67 C-78.66 66.67 -79.32 66.34 -80 66 Z " fill="#7DD954" transform="translate(172,146)"/>
<path d="M0 0 C1.213 3.073 1.187 4.482 0.062 7.594 C-1.464 12.488 -1.733 17.458 -2.123 22.543 C-2.819 30.058 -2.819 30.058 -6 33 C-9.344 33.872 -12.409 34.026 -15.855 33.875 C-29.94 33.326 -40.466 37.624 -50 48 C-50.623 48.655 -51.245 49.31 -51.887 49.984 C-61.968 61.674 -66.205 75.994 -68 91 C-68.129 91.9 -68.258 92.8 -68.391 93.727 C-70.114 107.289 -71.454 125.971 -62 137 C-61.73 137.333 -61.73 137.333 -60.363 139.02 C-53.594 147.169 -48.37 149.203 -37.812 148.875 C-32.046 148.819 -27.357 149.359 -21.953 151.344 C-20 152 -20 152 -17 152 C-14.984 148.274 -14.529 144.495 -14.035 140.328 C-13.956 139.68 -13.956 139.68 -13.555 136.403 C-13.392 135.032 -13.23 133.662 -13.062 132.25 C-11.861 122.532 -10.576 112.896 -8.781 103.27 C-7.78 97.795 -6.883 92.307 -6 86.812 C-5.828 85.743 -5.656 84.673 -5.478 83.571 C-4.389 76.706 -3.442 69.832 -2.562 62.938 C-1.451 54.233 0.296 45.765 2.239 37.211 C4.1 28.585 4.781 20.015 4.928 11.196 C5.169 5.509 5.666 1.407 10.526 -2.029 C16.172 -4.245 22.286 -3.681 28.25 -3.5 C29.624 -3.49 30.998 -3.479 32.414 -3.469 C42.535 -3.31 42.535 -3.31 46 -1 C46.852 14.22 43.5 29.277 40.121 44.016 C38.843 49.62 37.837 55.051 37.688 60.812 C37.65 61.768 37.613 62.723 37.574 63.707 C37.715 64.464 37.855 65.22 38 66 C43.797 67.449 49.484 67.225 55.438 67.25 C56.051 67.26 56.051 67.26 59.158 67.312 C60.342 67.318 61.526 67.323 62.746 67.328 C63.826 67.337 64.905 67.347 66.017 67.356 C69.455 66.946 71.295 66.148 74 64 C75.815 58.065 76.344 52.175 76.812 46 C77.793 34.77 80.029 23.841 82.41 12.835 C82.804 10.943 83.166 9.045 83.496 7.142 C83.574 6.697 83.574 6.697 83.969 4.445 C84.097 3.659 84.225 2.873 84.357 2.063 C85 0 85 0 88 -3 C93.284 -3.664 98.617 -3.463 103.938 -3.438 C105.417 -3.457 106.896 -3.477 108.42 -3.498 C109.129 -3.498 109.129 -3.498 112.715 -3.496 C114.015 -3.498 115.316 -3.5 116.656 -3.502 C120.531 -2.92 121.778 -2.192 124 1 C124 6.32 122.907 10.37 121.027 15.309 C118.489 22.801 118.069 30.213 117.562 38.062 C116.19 56.05 116.19 56.05 113.5 64.625 C110.539 74.08 109.972 83.629 109.164 93.467 C108.423 101.947 107.068 109.811 104.834 118.006 C102.88 125.547 102.209 133.062 101.562 140.812 C100.493 153.386 98.46 165.429 94.699 177.495 C94 180 94 180 93.707 182.622 C93.257 185.445 92.941 186.88 91 189 C86.413 190.217 81.996 190.294 77.267 190.173 C75.003 190.125 72.755 190.173 70.492 190.23 C59.957 190.144 59.957 190.144 57.345 187.02 C56.521 184.607 56.149 182.539 56 180 C55.876 179.031 55.753 178.061 55.625 177.062 C55.961 174.322 56.556 172.225 57.43 169.629 C59.316 163.45 59.902 157.287 60.5 150.875 C63.056 125.848 63.056 125.848 66.066 118.34 C67.783 114.037 68.182 109.609 65.375 105.787 C62.297 103.471 60.454 103.484 56.625 103.469 C55.393 103.464 54.16 103.458 52.891 103.453 C52.249 103.461 52.249 103.461 49 103.5 C47.716 103.485 46.432 103.469 45.109 103.453 C43.877 103.458 42.645 103.463 41.375 103.469 C40.248 103.473 39.122 103.478 37.961 103.482 C33.401 104.28 31.64 106.562 29.809 110.676 C28.8 114.821 28.412 118.948 28.062 123.188 C27.118 133.338 27.118 133.338 25.562 138.312 C23.877 143.771 23.136 149.291 22.375 154.938 C22.245 155.903 22.114 156.868 21.98 157.863 C21.331 162.872 20.857 167.827 20.625 172.875 C20.257 178.426 18.246 181.537 15 186 C14.67 186.99 14.34 187.98 14 189 C9.139 189.898 4.183 189.789 -0.75 189.875 C-2.134 189.954 -3.519 190.032 -4.945 190.113 C-14.882 190.277 -14.882 190.277 -18.075 186.63 C-20.879 180.709 -21.315 176.471 -20 170 C-19.893 166.332 -19.939 162.669 -20 159 C-23.387 160.767 -23.944 161.525 -24.398 165.406 C-24.383 168.115 -24.362 170.823 -24.336 173.531 C-24.964 179.608 -26.247 184.898 -31 189 C-36.832 190.333 -42.366 190.333 -48.323 190.104 C-51.125 190 -53.918 189.981 -56.723 189.977 C-58.505 189.948 -60.288 189.914 -62.07 189.875 C-62.488 189.871 -62.488 189.871 -64.602 189.849 C-70.101 189.601 -72.04 188.586 -75 184 C-78.418 182.086 -78.418 182.086 -82.188 180.375 C-88.892 177.323 -88.892 177.323 -90 174 C-91.32 173.34 -92.64 172.68 -94 172 C-110.062 155.069 -113.4 133.094 -113.375 110.625 C-113.375 109.257 -113.375 107.889 -113.375 106.479 C-113.28 98.151 -112.68 90.986 -110.012 83.074 C-108.925 79.771 -108.401 76.63 -107.938 73.188 C-106.703 64.437 -104.43 57.651 -100 50 C-99.371 48.259 -98.769 46.508 -98.188 44.75 C-91.347 25.607 -73.474 8.036 -55 0 C-53.804 -0.536 -52.607 -1.072 -51.375 -1.625 C-38.013 -6.311 -10.952 -11.979 0 0 Z " fill="#FFFFFF" transform="translate(787,299)"/>
<path d="M0 0 C0.928 -0.006 1.857 -0.012 2.814 -0.019 C3.817 -0.01 4.82 -0 5.853 0.009 C6.372 0.009 6.372 0.009 8.997 0.008 C11.197 0.01 13.397 0.02 15.597 0.036 C18.937 0.06 22.277 0.057 25.617 0.05 C27.758 0.056 29.9 0.063 32.041 0.072 C33.03 0.071 34.019 0.07 35.037 0.069 C43.687 0.156 51.693 1.315 59.662 4.81 C60.616 5.221 61.57 5.632 62.552 6.056 C63.496 6.49 64.44 6.925 65.412 7.372 C66.408 7.827 67.405 8.282 68.431 8.751 C80.673 15.409 88.524 26.95 92.392 40.06 C93.412 42.372 93.412 42.372 95.442 43.652 C98.208 46.068 97.924 47.601 97.945 51.217 C97.953 51.818 97.953 51.818 97.993 54.859 C97.988 56.159 97.983 57.459 97.978 58.798 C97.984 60.134 97.991 61.469 97.997 62.845 C98.004 65.674 98.001 68.502 97.988 71.331 C97.974 75.657 98.008 79.982 98.047 84.308 C98.048 87.055 98.046 89.801 98.041 92.548 C98.054 93.842 98.067 95.136 98.081 96.469 C98.008 103.525 97.76 107.29 92.412 112.372 C91.465 114.715 91.465 114.715 91.006 116.947 C90.822 117.774 90.638 118.601 90.449 119.453 C90.272 120.313 90.094 121.174 89.912 122.06 C88.182 129.666 86.055 136.436 82.412 143.372 C81.793 144.713 81.174 146.054 80.537 147.435 C67.538 171.521 49.285 183.019 23.106 188.592 C20.412 189.372 20.412 189.372 17.758 190.919 C13.004 192.984 8.601 192.917 3.467 192.982 C2.943 192.99 2.943 192.99 0.293 193.034 C-1.915 193.062 -4.122 193.081 -6.329 193.093 C-9.71 193.122 -13.087 193.215 -16.467 193.31 C-18.614 193.329 -20.761 193.345 -22.908 193.357 C-23.414 193.375 -23.414 193.375 -25.97 193.469 C-32.772 193.404 -32.772 193.404 -35.121 190.434 C-37.518 185.264 -39.528 179.325 -36.158 174.197 C-34.139 170.564 -33.6 166.991 -33.026 162.935 C-32.902 162.114 -32.778 161.294 -32.651 160.449 C-31.58 153.031 -30.885 145.583 -30.322 138.111 C-29.713 130.394 -28.518 123.063 -26.049 115.712 C-23.944 108.938 -23.72 101.974 -23.213 94.935 C-22.414 85.139 -21.348 76.014 -18.431 66.635 C-15.877 57.906 -15.33 48.893 -14.576 39.862 C-13.85 31.227 -12.841 23.456 -9.588 15.372 C-9.048 12.294 -8.646 9.214 -8.248 6.115 C-7.072 1.23 -4.666 -0.004 0 0 Z M25.412 38.372 C24.408 40.904 24.408 40.904 23.849 43.872 C23.62 45.04 23.39 46.208 23.154 47.411 C22.909 48.718 22.664 50.026 22.412 51.372 C22.105 52.762 21.798 54.152 21.482 55.583 C18.894 67.405 17.283 79.29 15.895 91.309 C15.078 98.151 13.924 104.646 12.15 111.3 C10.736 117.188 10.018 123.187 9.224 129.185 C9.047 130.455 8.87 131.726 8.687 133.034 C6.466 149.426 6.466 149.426 10.412 153.372 C21.539 155.602 29.813 149.729 37.412 142.372 C38.154 141.692 38.897 141.011 39.662 140.31 C53.367 125.136 57.706 104.131 58.412 84.372 C58.444 83.527 58.475 82.681 58.508 81.81 C59.549 48.763 59.549 48.763 45.427 39.392 C31.302 31.995 31.302 31.995 25.412 38.372 Z " fill="#FFFFFF" transform="translate(926.588134765625,295.627685546875)"/>
<path d="M0 0 C1.372 0.004 2.744 0.008 4.158 0.012 C5.59 0.036 7.021 0.061 8.496 0.086 C9.931 0.087 11.367 0.089 12.846 0.09 C23.512 0.18 23.512 0.18 26.934 2.461 C28.045 5.537 28.062 7.084 27.003 10.198 C25.871 13.651 25.402 16.806 25.004 20.414 C24.85 21.746 24.697 23.078 24.539 24.45 C24.38 25.856 24.222 27.262 24.059 28.711 C23.022 37.509 21.985 46.165 19.871 54.773 C18.099 61.998 17.232 69.124 16.496 76.523 C15.601 85.509 14.323 94.255 12.434 103.086 C9.968 114.613 8.422 126.148 7.229 137.872 C7.039 139.534 6.809 141.193 6.529 142.843 C5.634 148.161 5.634 148.161 8.934 151.461 C12.876 152.417 16.622 152.564 20.664 152.488 C21.714 152.476 22.764 152.464 23.846 152.451 C26.041 152.416 28.236 152.377 30.432 152.334 C31.478 152.323 32.524 152.312 33.602 152.301 C34.077 152.292 34.077 152.292 36.485 152.25 C38.934 152.461 38.934 152.461 41.934 154.461 C43.048 157.546 43.097 159.031 41.922 162.117 C40.364 167.387 41.217 172.547 41.645 177.977 C41.234 184.19 37.725 188.707 32.934 192.461 C27.589 193.907 22.42 193.794 16.91 193.684 C15.357 193.683 13.804 193.685 12.251 193.691 C9.01 193.692 5.773 193.659 2.533 193.6 C-1.625 193.526 -5.778 193.528 -9.936 193.554 C-13.136 193.568 -16.335 193.547 -19.535 193.514 C-21.069 193.502 -22.602 193.5 -24.136 193.507 C-26.271 193.51 -28.406 193.464 -30.541 193.414 C-31.755 193.4 -32.97 193.385 -34.222 193.37 C-37.066 192.461 -37.066 192.461 -38.457 189.071 C-39.934 180.321 -38.909 172.471 -36.941 163.898 C-33.991 150.21 -32.098 136.401 -30.21 122.535 C-28.955 113.364 -27.52 104.284 -25.754 95.194 C-24.655 89.228 -23.9 83.226 -23.129 77.211 C-21.911 68.005 -20.459 58.946 -18.499 49.872 C-17.09 43.13 -16.268 36.366 -15.504 29.523 C-12.154 -0.079 -12.154 -0.079 0 0 Z " fill="#FFFFFF" transform="translate(240.06640625,295.5390625)"/>
<path d="M0 0 C-0.139 0.543 -0.139 0.543 -0.84 3.289 C-1.202 4.72 -1.564 6.151 -1.938 7.625 C-2.297 9.04 -2.657 10.456 -3.027 11.914 C-4.285 17.199 -5.094 22.287 -5.359 27.711 C-5.424 28.792 -5.488 29.874 -5.555 30.988 C-5.683 33.206 -5.798 35.425 -5.898 37.645 C-6.306 44.052 -7.386 49.587 -9.453 55.676 C-12.187 63.904 -13.119 71.75 -13.801 80.335 C-14.144 84.605 -14.546 88.869 -14.957 93.133 C-15.038 93.977 -15.119 94.822 -15.203 95.692 C-16.072 104.334 -17.576 112.823 -19.338 121.325 C-20.366 126.317 -21.079 131.014 -21.27 136.113 C-21.806 142.412 -22.968 147.814 -28 152 C-33.337 153.586 -38.401 153.579 -43.938 153.5 C-45.378 153.572 -46.819 153.644 -48.303 153.719 C-58.395 153.719 -58.395 153.719 -62.451 149.375 C-67.246 140.564 -68.76 130.822 -70.188 121 C-71.642 111.52 -73.309 102.413 -76.083 93.225 C-77.445 88.434 -78.238 83.603 -79 78.688 C-80.387 70.218 -82.079 61.917 -84.168 53.594 C-85.792 46.578 -85.792 46.578 -86 43 C-82.688 42 -82.688 42 -80.469 41.664 C-76.423 40.576 -73.481 37.985 -70.199 35.461 C-68 34 -68 34 -65 34 C-64.67 33.01 -64.34 32.02 -64 31 C-59.938 29.812 -59.938 29.812 -56 29 C-55.879 29.967 -55.758 30.934 -55.633 31.93 C-53.067 51.867 -53.067 51.867 -50 58 C-46.811 54.811 -46.582 54.309 -46 50.125 C-45.923 49.6 -45.923 49.6 -45.531 46.945 C-45.356 45.643 -45.181 44.341 -45 43 C-44.634 40.282 -44.265 37.564 -43.891 34.847 C-43.633 32.97 -43.383 31.091 -43.141 29.211 C-43.022 28.337 -42.903 27.463 -42.781 26.562 C-42.679 25.78 -42.576 24.998 -42.471 24.191 C-41.145 18.022 -38.582 17.103 -33 15.25 C-31.742 14.822 -30.484 14.394 -29.188 13.953 C-26 13 -26 13 -24 13 C-23.67 11.68 -23.34 10.36 -23 9 C-16.499 3.181 -8.706 -0.222 0 0 Z " fill="#FFFFFF" transform="translate(678,336)"/>
<path d="M0 0 C2.024 -0.017 4.048 -0.044 6.072 -0.082 C8.998 -0.137 11.922 -0.159 14.847 -0.173 C15.75 -0.196 16.652 -0.219 17.581 -0.242 C23.368 -0.223 26.268 0.505 29.601 5.35 C30.321 8.091 30.321 8.091 30.457 11.084 C30.521 12.203 30.585 13.321 30.65 14.474 C30.673 15.072 30.673 15.072 30.789 18.1 C30.925 20.644 31.063 23.189 31.203 25.733 C31.266 27.013 31.33 28.294 31.395 29.613 C31.641 34.063 32.006 38.495 32.397 42.934 C33.264 52.81 33.951 62.701 34.476 72.6 C34.55 73.702 34.623 74.803 34.699 75.938 C35.148 85.628 35.148 85.628 30.601 89.35 C27.394 91.264 27.394 91.264 23.789 92.975 C22.607 93.545 21.425 94.115 20.207 94.702 C8.561 100.026 8.561 100.026 3.601 99.35 C-0.01 95.739 -0.528 93.718 -0.496 88.834 C-0.493 87.923 -0.49 87.012 -0.486 86.074 C-0.478 85.092 -0.47 84.111 -0.461 83.1 C-0.459 82.595 -0.459 82.595 -0.45 80.041 C-0.433 75.715 -0.405 71.39 -0.378 67.065 C-0.36 63.91 -0.348 60.755 -0.336 57.6 C-0.328 56.619 -0.32 55.637 -0.311 54.626 C-0.308 53.715 -0.304 52.804 -0.301 51.866 C-0.298 51.465 -0.298 51.465 -0.285 49.437 C-0.399 47.35 -0.399 47.35 -1.399 44.35 C-5.626 45.759 -6.528 48.694 -8.399 52.475 C-8.577 52.833 -8.577 52.833 -9.482 54.644 C-12.323 60.613 -13.692 66.44 -14.762 72.967 C-15.491 76.842 -16.785 80.096 -18.364 83.686 C-19.673 87.056 -20.517 90.47 -21.399 93.975 C-24.988 107.774 -30.845 114.451 -44.399 119.35 C-51.017 121.146 -57.505 122.706 -64.399 122.35 C-66.507 120.242 -65.608 117.077 -65.399 114.35 C-64.577 111.842 -63.587 109.457 -62.543 107.034 C-61.366 104.274 -60.341 101.489 -59.336 98.663 C-58.26 95.656 -57.14 92.77 -55.836 89.85 C-54.632 86.917 -53.804 84.22 -53.024 81.163 C-51.959 77.06 -50.596 73.295 -48.899 69.413 C-46.708 64.37 -45.37 59.423 -44.141 54.077 C-43.306 51.01 -41.962 48.386 -40.434 45.608 C-39.056 42.603 -38.262 39.539 -37.399 36.35 C-36.148 31.732 -34.739 27.811 -32.395 23.616 C-30.473 19.246 -29.642 14.487 -28.621 9.838 C-24.256 -2.616 -10.844 0.065 0 0 Z " fill="#7DD954" transform="translate(373.398681640625,295.64990234375)"/>
<path d="M0 0 C3.938 1.375 3.938 1.375 4.57 3.777 C4.781 15.947 2.016 28.188 -2.109 39.578 C-3.053 42.348 -3.683 45.082 -4.312 47.938 C-7.613 60.301 -17.682 70.525 -29.766 74.258 C-32.062 75.375 -32.062 75.375 -33.495 77.901 C-37.582 81.839 -41.964 81.11 -47.434 81.074 C-48.548 81.081 -49.663 81.089 -50.811 81.096 C-53.167 81.104 -55.523 81.099 -57.879 81.082 C-61.484 81.063 -65.085 81.102 -68.689 81.146 C-70.979 81.147 -73.269 81.144 -75.559 81.137 C-76.097 81.144 -76.097 81.144 -78.823 81.183 C-85.542 81.078 -88.259 80.371 -92.062 74.375 C-94.344 73.09 -94.344 73.09 -96.562 72.312 C-103.727 69.777 -106.878 64.396 -110.25 57.875 C-110.924 56.586 -111.598 55.297 -112.293 53.969 C-116.062 46.313 -116.062 46.313 -116.062 42.375 C-113.99 41.794 -113.99 41.794 -111.086 41.488 C-110.029 41.358 -108.971 41.228 -107.882 41.094 C-106.745 40.96 -105.609 40.826 -104.438 40.688 C-94.725 39.386 -87.809 37.595 -79.734 31.887 C-76.576 30.1 -75.398 30.037 -72.062 31.375 C-70.661 33.328 -69.329 35.332 -68.062 37.375 C-64.996 40.24 -62.852 40.807 -58.688 40.812 C-57.772 40.832 -56.857 40.851 -55.914 40.871 C-48.672 39.611 -45.548 34.668 -42.312 28.562 C-41.927 27.876 -41.542 27.19 -41.145 26.482 C-39.282 23.076 -38.046 20.281 -37.367 16.438 C-36.062 13.375 -36.062 13.375 -31.992 12.395 C-30.309 12.292 -28.623 12.224 -26.938 12.188 C-19.859 11.929 -15.289 10.835 -9.062 7.375 C-8.403 7.375 -7.743 7.375 -7.062 7.375 C-6.345 5.393 -5.68 3.391 -5.062 1.375 C-4.062 0.375 -4.062 0.375 0 0 Z " fill="#FFFFFF" transform="translate(532.0625,407.625)"/>
<path d="M0 0 C5.408 5.408 4.553 14.803 4.949 21.992 C5.25 25.25 5.25 25.25 6.562 29.5 C6.789 30.408 7.016 31.315 7.25 32.25 C3.25 34.25 3.25 34.25 -0.938 34.625 C-7.264 35.2 -12.511 37.757 -17.75 41.25 C-26.477 44.159 -26.477 44.159 -29.75 43.25 C-31.438 39.312 -31.438 39.312 -32.75 35.25 C-37.408 32.921 -43.908 34.023 -49.098 34.01 C-51.477 34 -53.855 33.969 -56.234 33.938 C-57.755 33.931 -59.276 33.926 -60.797 33.922 C-62.177 33.913 -63.557 33.903 -64.979 33.894 C-70.427 34.409 -73.687 35.656 -76.75 40.25 C-77.503 44.244 -78.09 48.248 -78.676 52.27 C-79.888 56.762 -81.712 58.798 -84.75 62.25 C-84.984 63.287 -85.217 64.324 -85.458 65.392 C-86.75 68.25 -86.75 68.25 -89.915 68.931 C-91.245 68.9 -92.575 68.868 -93.945 68.836 C-95.383 68.817 -96.82 68.797 -98.301 68.777 C-99.826 68.727 -101.35 68.676 -102.875 68.625 C-104.408 68.595 -105.94 68.568 -107.473 68.543 C-111.233 68.472 -114.991 68.373 -118.75 68.25 C-120.447 54.501 -117.102 41.593 -108.75 30.25 C-104.443 28.097 -100.628 27.554 -95.938 26.938 C-88.407 25.861 -81.613 24.033 -74.441 21.441 C-69.197 19.749 -63.875 18.924 -58.453 17.992 C-54.297 17.159 -50.594 15.847 -46.668 14.285 C-43.019 12.991 -39.331 12.136 -35.562 11.25 C-27.261 9.257 -27.261 9.257 -23.438 7.188 C-19.431 5.082 -15.666 4.068 -11.297 2.988 C-8.75 2.25 -8.75 2.25 -5.375 0.375 C-2.75 -0.75 -2.75 -0.75 0 0 Z " fill="#88DC63" transform="translate(405.75,419.75)"/>
<path d="M0 0 C-0.054 3.584 -0.149 7.167 -0.25 10.75 C-0.264 11.727 -0.278 12.704 -0.293 13.711 C-0.507 20.459 -1.484 26.782 -2.898 33.359 C-4.481 40.752 -5.563 48.067 -6.273 55.594 C-6.367 56.57 -6.461 57.546 -6.557 58.552 C-6.932 62.547 -7.294 66.542 -7.631 70.54 C-9.796 95.796 -9.796 95.796 -17 103 C-21.972 103.338 -26.955 103.325 -31.938 103.375 C-32.642 103.394 -32.642 103.394 -36.209 103.488 C-36.88 103.494 -36.88 103.494 -40.277 103.523 C-41.517 103.543 -42.757 103.563 -44.035 103.583 C-47 103 -47 103 -48.369 100.737 C-50.427 91.806 -49.679 84.898 -47.824 75.969 C-46.933 71.676 -46.254 67.377 -45.625 63.039 C-45.092 60.447 -44.381 58.148 -43.539 55.648 C-41.369 48.585 -40.975 41.332 -40.375 34 C-40.136 31.208 -39.894 28.416 -39.648 25.625 C-39.547 24.4 -39.446 23.176 -39.341 21.914 C-39 19 -39 19 -38 17 C-35.777 16.762 -35.777 16.762 -32.938 16.688 C-27.868 16.326 -24.86 15.187 -20.77 12.246 C-19 11 -19 11 -15.875 9.688 C-12.321 7.602 -10.852 5.152 -8.785 1.645 C-6.054 -0.872 -3.558 -0.256 0 0 Z " fill="#FFFFFF" transform="translate(584,385)"/>
<path d="M0 0 C3.344 3.344 3.615 4.558 4.5 9.062 C4.747 10.308 4.995 11.553 5.25 12.836 C6.189 18.047 7.057 23.268 7.851 28.502 C8.562 33.022 9.657 37.135 11.188 41.438 C11.965 43.992 11.965 43.992 12 46 C8.25 48.062 8.25 48.062 4 49 C3.835 49.33 3.835 49.33 3 51 C1.03 51.985 -0.943 52.967 -2.93 53.918 C-5.571 55.298 -7.739 57.071 -10 59 C-13.009 60.505 -14.686 60.676 -18 60 C-19.514 57.128 -20.286 54.156 -21 51 C-24.781 52.89 -24.183 58.965 -24.73 62.875 C-26 66 -26 66 -29.441 66.707 C-30.616 66.804 -31.79 66.9 -33 67 C-34.609 68.637 -34.609 68.637 -35.75 70.688 C-39.338 76.103 -44.314 78.197 -50 81 C-50.495 81.33 -50.495 81.33 -53 83 C-55.699 83.195 -55.699 83.195 -58.688 83.125 C-59.681 83.107 -60.675 83.089 -61.699 83.07 C-62.458 83.047 -63.218 83.024 -64 83 C-62.202 74.653 -62.202 74.653 -61.005 70.785 C-60.012 67.047 -59.573 63.634 -59.289 59.781 C-59.178 58.437 -59.067 57.092 -58.953 55.707 C-58.734 52.903 -58.523 50.098 -58.32 47.293 C-57.175 33.721 -53.705 27.088 -41 21 C-40.051 20.361 -39.102 19.721 -38.125 19.062 C-34.555 16.706 -30.824 14.912 -27 13 C-24.994 11.676 -22.993 10.343 -21 9 C-19.989 8.526 -18.979 8.051 -17.938 7.562 C-14.652 5.815 -12.582 3.652 -10 1 C-6.446 -0.185 -3.73 -0.266 0 0 Z " fill="#7DD954" transform="translate(610,319)"/>
<path d="M0 0 C1.315 -0.001 2.63 -0.001 3.984 -0.002 C4.668 0.008 4.668 0.008 8.125 0.059 C9.491 0.052 10.858 0.044 12.266 0.037 C23.85 0.111 23.85 0.111 28.125 3.496 C28.826 7.788 28.082 10.626 26.719 14.754 C24.151 23.111 23.61 31.869 22.664 40.525 C22.585 41.194 22.585 41.194 22.188 44.578 C22.055 45.787 21.922 46.996 21.785 48.241 C19.442 59.795 6.935 64.302 -2.672 68.918 C-5.173 70.15 -7.471 71.436 -9.812 72.934 C-13.426 74.777 -15.871 74.897 -19.875 74.496 C-23.912 70.459 -19.844 55.684 -19.125 50.621 C-19.036 49.98 -19.036 49.98 -18.585 46.739 C-17.422 38.63 -16.002 30.638 -14.163 22.656 C-12.963 17.357 -12.434 12.273 -12.441 6.844 C-10.965 0.723 -5.485 -0.008 0 0 Z " fill="#7DD954" transform="translate(450.875,295.50390625)"/>
<path d="M0 0 C2.05 6.149 0.784 12.371 -0.312 18.625 C-0.446 19.412 -0.58 20.199 -0.718 21.01 C-1.724 26.779 -2.989 32.459 -4.379 38.148 C-4.965 40.841 -5.314 43.445 -5.562 46.188 C-6 50 -6 50 -8 52 C-9.134 51.752 -10.269 51.505 -11.438 51.25 C-12.613 51.168 -13.789 51.085 -15 51 C-15.413 51.866 -15.825 52.733 -16.25 53.625 C-19.52 59.931 -28.116 62.579 -35 63 C-39.002 63.062 -42.998 63.058 -47 63 C-45.802 53.338 -44.018 43.884 -41.934 34.383 C-41.205 30.964 -40.603 27.575 -40.062 24.125 C-37.909 15.763 -30.605 11.924 -22.938 9 C-18.973 7.484 -16.255 5.754 -13 3 C-11.503 2.005 -9.98 1.049 -8.438 0.125 C-7.694 -0.326 -6.95 -0.777 -6.184 -1.242 C-4 -2 -4 -2 0 0 Z " fill="#7DD954" transform="translate(543,358)"/>
<path d="M0 0 C0.664 -0.01 0.664 -0.01 4.023 -0.061 C5.302 -0.06 6.581 -0.059 7.898 -0.059 C9.068 -0.06 10.238 -0.062 11.443 -0.064 C15.258 0.537 16.96 1.679 19.625 4.438 C19.5 7.246 19.5 7.246 18.625 10.438 C17.381 18.921 16.387 27.366 15.871 35.926 C15.625 38.438 15.625 38.438 14.625 40.438 C12.789 40.946 10.929 41.369 9.062 41.75 C3.302 43.087 -0.537 45.095 -5.375 48.438 C-5.87 48.603 -5.87 48.603 -8.375 49.438 C-8.705 50.757 -9.035 52.077 -9.375 53.438 C-12.211 54.922 -12.211 54.922 -15.75 56.188 C-16.913 56.615 -18.075 57.043 -19.273 57.484 C-22.375 58.438 -22.375 58.438 -25.375 58.438 C-25.705 59.097 -26.035 59.757 -26.375 60.438 C-19.402 -0.103 -19.402 -0.103 0 0 Z " fill="#7DD954" transform="translate(663.375,295.5625)"/>
<path d="M0 0 C2.232 4.464 1.816 5.759 0.645 10.398 C-1.547 19.243 -2.243 27.946 -2.363 37.043 C-3 40 -3 40 -5.219 40.715 C-6.137 40.809 -7.054 40.903 -8 41 C-9.758 42.08 -11.485 43.21 -13.188 44.375 C-22.703 50.124 -34.029 51.246 -45 51 C-43.044 17.755 -43.044 17.755 -34 11 C-30.263 9.418 -26.549 8.228 -22.645 7.125 C-18.101 5.723 -14.908 3.655 -11 1 C-7.051 0.013 -4.043 -0.374 0 0 Z " fill="#7DD954" transform="translate(461,399)"/>
<path d="M0 0 C0.532 7.492 1.057 14.991 1.25 22.5 C1.276 23.377 1.302 24.253 1.328 25.156 C0.513 32.221 0.513 32.221 -2 36 C-7.3 37.359 -12.493 37.251 -17.938 37.188 C-18.677 37.216 -18.677 37.216 -22.42 37.357 C-32.893 37.353 -32.893 37.353 -35.871 33.713 C-36.994 30.777 -37.591 28.113 -38 25 C-38.21 23.742 -38.42 22.484 -38.637 21.188 C-38.774 12.553 -38.774 12.553 -34.938 9.812 C-33.638 9.544 -32.339 9.276 -31 9 C-26.473 7.751 -22.987 6.454 -19 4 C-13.339 1.653 -6.168 0 0 0 Z " fill="#FFFFFF" transform="translate(413,452)"/>
<path d="M0 0 C0.644 -0.002 0.644 -0.002 3.9 -0.01 C13.42 0.045 13.42 0.045 15.688 2.312 C16.296 5.721 16.257 6.802 13.633 9.156 C13.167 9.43 13.167 9.43 10.812 10.812 C9.813 11.407 8.814 12.001 7.785 12.613 C4.21 14.574 0.593 16.392 -3.121 18.074 C-5.644 19.5 -7.287 21.248 -9.312 23.312 C-10.918 24.474 -12.566 25.579 -14.25 26.625 C-15.084 27.157 -15.918 27.69 -16.777 28.238 C-19.833 29.533 -21.276 29.678 -24.312 28.312 C-26.19 21.147 -24.555 9.883 -21.312 3.312 C-14.994 -0.978 -7.334 -0.093 0 0 Z " fill="#7DD954" transform="translate(537.3125,295.6875)"/>
</svg>
